<svg width="42" height="42" viewBox="0 0 42 42" fill="none"
    xmlns="http://www.w3.org/2000/svg">
    <path d="M36.75 17.5H5.25M28 3.5V10.5M14 3.5V10.5M13.65 38.5H28.35C31.2904 38.5 32.7603 38.5 33.8835 37.9278C34.8714 37.4245 35.6745 36.6214 36.1778 35.6335C36.75 34.5104 36.75 33.0404 36.75 30.1V15.4C36.75 12.4597 36.75 10.9896 36.1778 9.86655C35.6745 8.8787 34.8714 8.07555 33.8835 7.57222C32.7603 7 31.2904 7 28.35 7H13.65C10.7097 7 9.23958 7 8.11655 7.57222C7.1287 8.07555 6.32555 8.8787 5.82222 9.86655C5.25 10.9896 5.25 12.4597 5.25 15.4V30.1C5.25 33.0404 5.25 34.5104 5.82222 35.6335C6.32555 36.6214 7.1287 37.4245 8.11655 37.9278C9.23958 38.5 10.7097 38.5 13.65 38.5Z" stroke="#D9D9D9" stroke-width="2" stroke-linecap="round" stroke-linejoin="round"/>
</svg>
