<svg width="42" height="42" viewBox="0 0 42 42" fill="none"
    xmlns="http://www.w3.org/2000/svg">
    <path d="M14.7 5.25H8.05C7.06991 5.25 6.57986 5.25 6.20552 5.44073C5.87624 5.60852 5.60852 5.87624 5.44073 6.20552C5.25 6.57986 5.25 7.06991 5.25 8.05V14.7C5.25 15.6801 5.25 16.1701 5.44073 16.5445C5.60852 16.8738 5.87624 17.1415 6.20552 17.3093C6.57986 17.5 7.06991 17.5 8.05 17.5H14.7C15.6801 17.5 16.1701 17.5 16.5445 17.3093C16.8738 17.1415 17.1415 16.8738 17.3093 16.5445C17.5 16.1701 17.5 15.6801 17.5 14.7V8.05C17.5 7.06991 17.5 6.57986 17.3093 6.20552C17.1415 5.87624 16.8738 5.60852 16.5445 5.44073C16.1701 5.25 15.6801 5.25 14.7 5.25Z" stroke="#D9D9D9" stroke-width="2" stroke-linecap="round" stroke-linejoin="round"/>
    <path d="M33.95 5.25H27.3C26.3198 5.25 25.8298 5.25 25.4555 5.44073C25.1261 5.60852 24.8586 5.87624 24.6908 6.20552C24.5 6.57986 24.5 7.06991 24.5 8.05V14.7C24.5 15.6801 24.5 16.1701 24.6908 16.5445C24.8586 16.8738 25.1261 17.1415 25.4555 17.3093C25.8298 17.5 26.3198 17.5 27.3 17.5H33.95C34.9302 17.5 35.4202 17.5 35.7945 17.3093C36.1239 17.1415 36.3914 16.8738 36.5593 16.5445C36.75 16.1701 36.75 15.6801 36.75 14.7V8.05C36.75 7.06991 36.75 6.57986 36.5593 6.20552C36.3914 5.87624 36.1239 5.60852 35.7945 5.44073C35.4202 5.25 34.9302 5.25 33.95 5.25Z" stroke="#D9D9D9" stroke-width="2" stroke-linecap="round" stroke-linejoin="round"/>
    <path d="M33.95 24.5H27.3C26.3198 24.5 25.8298 24.5 25.4555 24.6908C25.1261 24.8586 24.8586 25.1261 24.6908 25.4555C24.5 25.8298 24.5 26.3198 24.5 27.3V33.95C24.5 34.9302 24.5 35.4202 24.6908 35.7945C24.8586 36.1239 25.1261 36.3914 25.4555 36.5593C25.8298 36.75 26.3198 36.75 27.3 36.75H33.95C34.9302 36.75 35.4202 36.75 35.7945 36.5593C36.1239 36.3914 36.3914 36.1239 36.5593 35.7945C36.75 35.4202 36.75 34.9302 36.75 33.95V27.3C36.75 26.3198 36.75 25.8298 36.5593 25.4555C36.3914 25.1261 36.1239 24.8586 35.7945 24.6908C35.4202 24.5 34.9302 24.5 33.95 24.5Z" stroke="#D9D9D9" stroke-width="2" stroke-linecap="round" stroke-linejoin="round"/>
    <path d="M14.7 24.5H8.05C7.06991 24.5 6.57986 24.5 6.20552 24.6908C5.87624 24.8586 5.60852 25.1261 5.44073 25.4555C5.25 25.8298 5.25 26.3198 5.25 27.3V33.95C5.25 34.9302 5.25 35.4202 5.44073 35.7945C5.60852 36.1239 5.87624 36.3914 6.20552 36.5593C6.57986 36.75 7.06991 36.75 8.05 36.75H14.7C15.6801 36.75 16.1701 36.75 16.5445 36.5593C16.8738 36.3914 17.1415 36.1239 17.3093 35.7945C17.5 35.4202 17.5 34.9302 17.5 33.95V27.3C17.5 26.3198 17.5 25.8298 17.3093 25.4555C17.1415 25.1261 16.8738 24.8586 16.5445 24.6908C16.1701 24.5 15.6801 24.5 14.7 24.5Z" stroke="#D9D9D9" stroke-width="2" stroke-linecap="round" stroke-linejoin="round"/>
</svg>
