<svg width="42" height="42" viewBox="0 0 42 42" fill="none"
    xmlns="http://www.w3.org/2000/svg">
    <path d="M18.9999 12.25L9.00001 29.75M10.5 33.25H31.4997M32.9999 29.75L23.0001 12.25M6.3 36.75H7.7C8.68009 36.75 9.17014 36.75 9.54448 36.5593C9.87376 36.3914 10.1415 36.1239 10.3093 35.7945C10.5 35.4202 10.5 34.9302 10.5 33.95V32.55C10.5 31.5698 10.5 31.0798 10.3093 30.7055C10.1415 30.3761 9.87376 30.1086 9.54448 29.9407C9.17014 29.75 8.68009 29.75 7.7 29.75H6.3C5.31991 29.75 4.82986 29.75 4.45552 29.9407C4.12624 30.1086 3.85852 30.3761 3.69073 30.7055C3.5 31.0798 3.5 31.5698 3.5 32.55V33.95C3.5 34.9302 3.5 35.4202 3.69073 35.7945C3.85852 36.1239 4.12624 36.3914 4.45552 36.5593C4.82986 36.75 5.31991 36.75 6.3 36.75ZM34.3 36.75H35.7C36.6802 36.75 37.1702 36.75 37.5445 36.5593C37.8739 36.3914 38.1414 36.1239 38.3093 35.7945C38.5 35.4202 38.5 34.9302 38.5 33.95V32.55C38.5 31.5698 38.5 31.0798 38.3093 30.7055C38.1414 30.3761 37.8739 30.1086 37.5445 29.9407C37.1702 29.75 36.6802 29.75 35.7 29.75H34.3C33.3198 29.75 32.8298 29.75 32.4555 29.9407C32.1262 30.1086 31.8586 30.3761 31.6908 30.7055C31.5 31.0798 31.5 31.5698 31.5 32.55V33.95C31.5 34.9302 31.5 35.4202 31.6908 35.7945C31.8586 36.1239 32.1262 36.3914 32.4555 36.5593C32.8298 36.75 33.3198 36.75 34.3 36.75ZM20.3 12.25H21.7C22.6802 12.25 23.1702 12.25 23.5445 12.0593C23.8739 11.8915 24.1414 11.6238 24.3093 11.2945C24.5 10.9201 24.5 10.4301 24.5 9.45V8.05C24.5 7.06991 24.5 6.57986 24.3093 6.20552C24.1414 5.87624 23.8739 5.60852 23.5445 5.44073C23.1702 5.25 22.6802 5.25 21.7 5.25H20.3C19.3198 5.25 18.8298 5.25 18.4555 5.44073C18.1262 5.60852 17.8586 5.87624 17.6908 6.20552C17.5 6.57986 17.5 7.06991 17.5 8.05V9.45C17.5 10.4301 17.5 10.9201 17.6908 11.2945C17.8586 11.6238 18.1262 11.8915 18.4555 12.0593C18.8298 12.25 19.3198 12.25 20.3 12.25Z" stroke="#D9D9D9" stroke-width="2" stroke-linecap="round" stroke-linejoin="round"/>
</svg>
