<svg width="42" height="42" viewBox="0 0 42 42" fill="none"
    xmlns="http://www.w3.org/2000/svg">
    <path d="M24.5 19.25H14M17.5 26.25H14M28 12.25H14M35 11.9V30.1C35 33.0404 35 34.5104 34.4278 35.6335C33.9245 36.6214 33.1214 37.4245 32.1335 37.9278C31.0103 38.5 29.5403 38.5 26.6 38.5H15.4C12.4597 38.5 10.9896 38.5 9.86655 37.9278C8.8787 37.4245 8.07555 36.6214 7.57222 35.6335C7 34.5104 7 33.0404 7 30.1V11.9C7 8.95972 7 7.48958 7.57222 6.36655C8.07555 5.3787 8.8787 4.57555 9.86655 4.07222C10.9896 3.5 12.4597 3.5 15.4 3.5H26.6C29.5403 3.5 31.0103 3.5 32.1335 4.07222C33.1214 4.57555 33.9245 5.3787 34.4278 6.36655C35 7.48958 35 8.95972 35 11.9Z" stroke="#D9D9D9" stroke-width="2" stroke-linecap="round" stroke-linejoin="round"/>
</svg>
