<svg width="42" height="42" viewBox="0 0 42 42" fill="none"
    xmlns="http://www.w3.org/2000/svg">
    <path d="M21 21L13.5224 14.7687C12.4115 13.8429 11.856 13.38 11.4566 12.8125C11.1028 12.3097 10.84 11.7487 10.6803 11.155C10.5 10.4849 10.5 9.76183 10.5 8.31565V3.5M21 21L28.4776 14.7687C29.5885 13.8429 30.1441 13.38 30.5434 12.8125C30.8973 12.3097 31.16 11.7487 31.3197 11.155C31.5 10.4849 31.5 9.76183 31.5 8.31565V3.5M21 21L13.5224 27.2312C12.4115 28.1572 11.856 28.62 11.4566 29.1876C11.1028 29.6903 10.84 30.2514 10.6803 30.845C10.5 31.5151 10.5 32.2382 10.5 33.6844V38.5M21 21L28.4776 27.2312C29.5885 28.1572 30.1441 28.62 30.5434 29.1876C30.8973 29.6903 31.16 30.2514 31.3197 30.845C31.5 31.5151 31.5 32.2382 31.5 33.6844V38.5M7 3.5H35M7 38.5H35" stroke="#D9D9D9" stroke-width="2" stroke-linecap="round" stroke-linejoin="round"/>
</svg>
